<svg width="152" height="32" viewBox="0 0 152 32" fill="none" xmlns="http://www.w3.org/2000/svg">
<g id="CC Logo">
<g id="Group">
<path id="Vector" opacity="0.8" d="M8.37027 27.5809V31.9408H7.82043V27.5809H8.37027ZM9.72547 27.5809V28.0545H6.46933V27.5809H9.72547ZM19.081 29.6234V29.8983C19.081 30.226 19.0421 30.5199 18.9624 30.7779C18.8827 31.038 18.7703 31.2579 18.6211 31.4397C18.4719 31.6215 18.294 31.759 18.0855 31.8562C17.8791 31.9514 17.6481 32 17.3906 32C17.133 32 16.9123 31.9514 16.7038 31.8562C16.4973 31.7611 16.3175 31.6215 16.1662 31.4397C16.0149 31.2579 15.8984 31.038 15.8167 30.7779C15.7329 30.5178 15.692 30.226 15.692 29.8983V29.6234C15.692 29.2957 15.7329 29.0039 15.8146 28.7459C15.8984 28.4858 16.0149 28.2659 16.1642 28.0841C16.3154 27.9001 16.4932 27.7606 16.6997 27.6654C16.9082 27.5703 17.1371 27.5216 17.3865 27.5216C17.6358 27.5216 17.875 27.5703 18.0814 27.6654C18.2899 27.7606 18.4678 27.9001 18.617 28.0841C18.7682 28.2659 18.8827 28.4858 18.9604 28.7459C19.0421 29.0039 19.083 29.2957 19.083 29.6234H19.081ZM18.527 29.8983V29.6171C18.527 29.357 18.5005 29.1286 18.4494 28.9277C18.3983 28.729 18.3247 28.5598 18.2266 28.4245C18.1285 28.2892 18.0079 28.1856 17.8648 28.1158C17.7237 28.046 17.5643 28.0101 17.3844 28.0101C17.2046 28.0101 17.0533 28.046 16.9123 28.1158C16.7733 28.1856 16.6527 28.2892 16.5525 28.4245C16.4544 28.5598 16.3788 28.7269 16.3236 28.9277C16.2704 29.1265 16.2418 29.357 16.2418 29.6171V29.8983C16.2418 30.1605 16.2684 30.3909 16.3236 30.5939C16.3767 30.7927 16.4544 30.9618 16.5546 31.0993C16.6568 31.2346 16.7774 31.3382 16.9164 31.408C17.0574 31.4778 17.2148 31.5137 17.3885 31.5137C17.5623 31.5137 17.7319 31.4778 17.8709 31.408C18.012 31.3382 18.1305 31.2346 18.2266 31.0993C18.3247 30.9618 18.4003 30.7927 18.4494 30.5939C18.5005 30.3931 18.525 30.1605 18.525 29.8983H18.527ZM28.5959 29.7693V31.3657C28.5448 31.446 28.461 31.5349 28.3466 31.6342C28.2321 31.7315 28.0747 31.8182 27.8744 31.8922C27.6761 31.9641 27.4186 32 27.1038 32C26.8462 32 26.6112 31.9535 26.3945 31.8626C26.1799 31.7696 25.9939 31.6321 25.8365 31.4545C25.6811 31.2748 25.5585 31.057 25.4727 30.8011C25.3868 30.5432 25.3459 30.2514 25.3459 29.9258V29.5875C25.3459 29.2618 25.3827 28.9722 25.4563 28.7163C25.5319 28.4605 25.6423 28.2448 25.7854 28.0672C25.9305 27.8874 26.1083 27.7521 26.3189 27.6591C26.5294 27.566 26.7706 27.5195 27.0425 27.5195C27.3654 27.5195 27.6332 27.5766 27.8499 27.6929C28.0686 27.8071 28.2382 27.9636 28.3588 28.1666C28.4815 28.3674 28.5612 28.5979 28.5959 28.8559H28.0379C28.0134 28.6973 27.9623 28.5556 27.8866 28.4245C27.8131 28.2955 27.7088 28.1898 27.5719 28.1137C27.4349 28.0333 27.2591 27.9932 27.0425 27.9932C26.8483 27.9932 26.6786 28.0291 26.5355 28.1031C26.3925 28.1771 26.276 28.2828 26.1819 28.4203C26.0899 28.5577 26.0204 28.7248 25.9734 28.9214C25.9285 29.1159 25.908 29.338 25.908 29.5832V29.9279C25.908 30.1795 25.9366 30.4036 25.9918 30.6024C26.0491 30.799 26.1308 30.9682 26.2371 31.1077C26.3434 31.2452 26.4701 31.3509 26.6173 31.4228C26.7665 31.4947 26.93 31.5306 27.1099 31.5306C27.3082 31.5306 27.4697 31.5137 27.5923 31.4799C27.715 31.4439 27.8131 31.4016 27.8826 31.3551C27.9521 31.3044 28.0052 31.2579 28.042 31.2135V30.2366H27.067V29.7693H28.598H28.5959ZM37.7654 31.4693V31.9387H35.5334V31.4693H37.7654ZM35.6478 27.5809V31.9408H35.0898V27.5809H35.6478ZM37.4711 29.4542V29.9237H35.5354V29.4542H37.4711ZM37.7368 27.5809V28.0545H35.5334V27.5809H37.7368ZM45.639 27.5809V31.9408H45.0892V27.5809H45.639ZM46.9942 27.5809V28.0545H43.7381V27.5809H46.9942ZM55.9389 29.4542V29.9237H53.6577V29.4542H55.9389ZM53.7456 27.5809V31.9408H53.1876V27.5809H53.7456ZM56.4254 27.5809V31.9408H55.8694V27.5809H56.4254ZM65.6623 31.4693V31.9387H63.4302V31.4693H65.6623ZM63.5447 27.5809V31.9408H62.9867V27.5809H63.5447ZM65.368 29.4542V29.9237H63.4323V29.4542H65.368ZM65.6337 27.5809V28.0545H63.4302V27.5809H65.6337ZM71.9211 27.5809H73.3172C73.634 27.5809 73.8997 27.6316 74.1185 27.731C74.3392 27.8304 74.5048 27.9784 74.6192 28.175C74.7358 28.3695 74.793 28.6064 74.793 28.8897C74.793 29.0884 74.7542 29.2724 74.6744 29.4373C74.5968 29.6001 74.4864 29.7397 74.3392 29.856C74.1941 29.9702 74.0203 30.0547 73.818 30.1097L73.6626 30.1732H72.3504L72.3442 29.7038H73.3335C73.5339 29.7038 73.7015 29.6678 73.8343 29.5959C73.9672 29.5219 74.0674 29.4225 74.1348 29.2999C74.2023 29.1751 74.237 29.0398 74.237 28.8897C74.237 28.7226 74.2043 28.5746 74.1409 28.4499C74.0776 28.3251 73.9774 28.2279 73.8405 28.1602C73.7056 28.0904 73.5318 28.0545 73.3172 28.0545H72.4812V31.9408H71.9232V27.5809H71.9211ZM74.3842 31.9408L73.3601 29.9638H73.9427L74.981 31.9049V31.9408H74.3842ZM89.2851 30.6235L90.1211 27.5809H90.5259L90.2908 28.7628L89.3914 31.9387H88.9888L89.2831 30.6214L89.2851 30.6235ZM88.4205 27.5809L89.0869 30.5622L89.2872 31.9387H88.8886L87.8666 27.5787H88.4226L88.4205 27.5809ZM91.6092 30.5601L92.2612 27.5809H92.8193L91.8013 31.9408H91.4027L91.6112 30.5601H91.6092ZM90.5872 27.5809L91.4007 30.6235L91.695 31.9408H91.2924L90.4237 28.7649L90.1866 27.583H90.5851L90.5872 27.5809ZM101.682 31.4693V31.9387H99.4501V31.4693H101.682ZM99.5646 27.5809V31.9408H99.0065V27.5809H99.5646ZM101.388 29.4542V29.9237H99.4521V29.4542H101.388ZM101.654 27.5809V28.0545H99.4501V27.5809H101.654ZM118.092 29.7693V31.3657C118.038 31.446 117.957 31.5349 117.842 31.6342C117.728 31.7315 117.57 31.8182 117.37 31.8922C117.172 31.9641 116.914 32 116.599 32C116.342 32 116.107 31.9535 115.89 31.8626C115.676 31.7696 115.49 31.6321 115.332 31.4545C115.175 31.2748 115.054 31.057 114.968 30.8011C114.882 30.5432 114.842 30.2514 114.842 29.9258V29.5875C114.842 29.2618 114.878 28.9722 114.952 28.7163C115.028 28.4605 115.138 28.2448 115.281 28.0672C115.426 27.8874 115.604 27.7521 115.813 27.6591C116.023 27.566 116.264 27.5195 116.536 27.5195C116.859 27.5195 117.127 27.5766 117.343 27.6929C117.562 27.8071 117.732 27.9636 117.852 28.1666C117.975 28.3674 118.055 28.5979 118.09 28.8559H117.532C117.507 28.6973 117.456 28.5556 117.38 28.4245C117.307 28.2955 117.202 28.1898 117.066 28.1137C116.929 28.0333 116.753 27.9932 116.536 27.9932C116.342 27.9932 116.172 28.0291 116.029 28.1031C115.886 28.1771 115.77 28.2828 115.676 28.4203C115.584 28.5577 115.514 28.7248 115.467 28.9214C115.422 29.1159 115.402 29.338 115.402 29.5832V29.9279C115.402 30.1795 115.43 30.4036 115.485 30.6024C115.543 30.799 115.624 30.9682 115.731 31.1077C115.837 31.2452 115.964 31.3509 116.111 31.4228C116.26 31.4947 116.424 31.5306 116.604 31.5306C116.802 31.5306 116.963 31.5137 117.086 31.4799C117.209 31.4439 117.307 31.4016 117.376 31.3551C117.446 31.3044 117.499 31.2579 117.536 31.2135V30.2366H116.561V29.7693H118.092ZM124.583 27.5809H125.98C126.296 27.5809 126.562 27.6316 126.781 27.731C127.002 27.8304 127.167 27.9784 127.282 28.175C127.398 28.3695 127.455 28.6064 127.455 28.8897C127.455 29.0884 127.416 29.2724 127.337 29.4373C127.259 29.6001 127.147 29.7397 127.002 29.856C126.856 29.9702 126.683 30.0547 126.48 30.1097L126.325 30.1732H125.013L125.007 29.7038H125.996C126.196 29.7038 126.364 29.6678 126.497 29.5959C126.63 29.5219 126.73 29.4225 126.797 29.2999C126.865 29.1751 126.899 29.0398 126.899 28.8897C126.899 28.7226 126.867 28.5746 126.803 28.4499C126.74 28.3251 126.64 28.2279 126.503 28.1602C126.368 28.0904 126.192 28.0545 125.98 28.0545H125.144V31.9408H124.586V27.5809H124.583ZM127.047 31.9408L126.022 29.9638H126.605L127.643 31.9049V31.9408H127.047ZM137.046 29.6234V29.8983C137.046 30.226 137.007 30.5199 136.927 30.7779C136.848 31.038 136.735 31.2579 136.586 31.4397C136.437 31.6215 136.259 31.759 136.05 31.8562C135.844 31.9514 135.613 32 135.355 32C135.098 32 134.877 31.9514 134.669 31.8562C134.462 31.7611 134.282 31.6215 134.131 31.4397C133.98 31.2579 133.863 31.038 133.782 30.7779C133.698 30.5178 133.657 30.226 133.657 29.8983V29.6234C133.657 29.2957 133.698 29.0039 133.777 28.7459C133.861 28.4858 133.978 28.2659 134.127 28.0841C134.278 27.9001 134.456 27.7606 134.663 27.6654C134.871 27.5703 135.1 27.5216 135.349 27.5216C135.599 27.5216 135.838 27.5703 136.044 27.6654C136.253 27.7606 136.431 27.9001 136.58 28.0841C136.731 28.2659 136.846 28.4858 136.925 28.7459C137.007 29.0039 137.046 29.2957 137.046 29.6234ZM136.494 29.8983V29.6171C136.494 29.357 136.467 29.1286 136.416 28.9277C136.367 28.729 136.292 28.5598 136.194 28.4245C136.095 28.2892 135.975 28.1856 135.832 28.1158C135.691 28.046 135.531 28.0101 135.351 28.0101C135.172 28.0101 135.02 28.046 134.879 28.1158C134.74 28.1856 134.62 28.2892 134.519 28.4245C134.421 28.5598 134.346 28.7269 134.291 28.9277C134.237 29.1265 134.209 29.357 134.209 29.6171V29.8983C134.209 30.1605 134.235 30.3909 134.291 30.5939C134.344 30.7927 134.421 30.9618 134.522 31.0993C134.624 31.2346 134.744 31.3382 134.883 31.408C135.024 31.4778 135.182 31.5137 135.355 31.5137C135.529 31.5137 135.699 31.4778 135.838 31.408C135.979 31.3382 136.097 31.2346 136.194 31.0993C136.292 30.9618 136.367 30.7927 136.416 30.5939C136.465 30.3931 136.492 30.1605 136.492 29.8983H136.494ZM144.558 30.6235L145.394 27.5809H145.798L145.563 28.7628L144.664 31.9387H144.261L144.556 30.6214L144.558 30.6235ZM143.693 27.5809L144.359 30.5622L144.56 31.9387H144.161L143.139 27.5787H143.695L143.693 27.5809ZM146.882 30.5601L147.534 27.5809H148.092L147.074 31.9408H146.675L146.884 30.5601H146.882ZM145.86 27.5809L146.673 30.6235L146.968 31.9408H146.565L145.696 28.7649L145.459 27.583H145.858L145.86 27.5809Z" fill="#00213D"/>
<g id="Group_2">
<path id="Vector_2" d="M119.958 0V20.7321H117.225V0H119.958ZM125.814 0V20.7321H123.081V0H125.814ZM128.05 15.6786C128.05 12.2468 130.237 10.5299 134.613 10.5299C136.02 10.5299 137.428 10.6356 138.834 10.8492V9.27182C138.834 7.34768 137.381 6.38772 134.474 6.38772C132.811 6.38772 131.106 6.65414 129.358 7.18486V4.79344C131.104 4.26271 132.811 3.99629 134.474 3.99629C139.282 3.99629 141.686 5.72802 141.686 9.19358V20.7342H140.083L139.098 19.0765C137.485 20.1823 135.73 20.7342 133.829 20.7342C129.976 20.7342 128.05 19.049 128.05 15.6807V15.6786ZM134.613 12.9213C132.138 12.9213 130.899 13.8242 130.899 15.632C130.899 17.4399 131.874 18.3428 133.827 18.3428C135.779 18.3428 137.469 17.8015 138.834 16.7168V13.2427C137.428 13.0292 136.02 12.9234 134.613 12.9234V12.9213ZM144.449 20.7321V3.99629H146.375L146.884 6.13187C148.302 4.70886 150.007 3.99629 152 3.99629V6.45115C150.068 6.45115 148.503 7.15738 147.301 8.57194V20.7342H144.449V20.7321Z" fill="#2F80ED"/>
<path id="Vector_3" d="M99.2008 19.596C97.6759 20.4355 95.9671 20.852 94.2419 20.8055C92.5168 20.759 90.8305 20.2536 89.3485 19.336C87.8666 18.4183 86.6402 17.1179 85.7878 15.5659C84.9355 14.0118 84.4838 12.2568 84.4817 10.4722C84.4776 8.68552 84.9212 6.92842 85.7674 5.3722C86.6136 3.81597 87.8339 2.51136 89.3117 1.58524C90.7896 0.661228 92.4718 0.145305 94.199 0.092444C95.9242 0.039583 97.635 0.447669 99.1619 1.28076L97.8783 3.8054C96.7704 3.20278 95.5317 2.90676 94.2808 2.94482C93.0298 2.98288 91.8096 3.35502 90.7405 4.0253C89.6695 4.69558 88.7844 5.64073 88.1712 6.76773C87.558 7.89684 87.2371 9.16973 87.2391 10.4638C87.2412 11.7578 87.5682 13.0286 88.1855 14.1556C88.8028 15.2826 89.6919 16.2214 90.7651 16.8874C91.8382 17.5535 93.0605 17.9193 94.3094 17.9531C95.5603 17.9869 96.799 17.6846 97.9028 17.0756L99.1987 19.596H99.2008Z" fill="#2F80ED"/>
<g id="Group_3">
<path id="Vector_4" d="M107.172 7.17848C109.129 7.17848 110.813 8.43445 111.565 10.236L114.257 8.93769C113.045 6.01765 110.328 3.98145 107.17 3.98145C105.954 3.98145 104.805 4.28381 103.779 4.82088L105.073 7.6944C105.707 7.36455 106.418 7.17848 107.17 7.17848H107.172Z" fill="#00213D"/>
<path id="Vector_5" d="M114.259 8.9377L111.567 10.236C111.837 10.883 111.988 11.5977 111.988 12.3525C111.988 14.4014 110.878 16.1733 109.27 17.0106L108 14.1921C107.749 14.3232 107.469 14.3972 107.172 14.3972C106.4 14.3972 105.736 13.9003 105.437 13.1898L102.78 14.4712C102.51 13.8242 102.359 13.1095 102.359 12.3546C102.359 10.3057 103.469 8.53384 105.077 7.69652L103.783 4.823C101.196 6.18047 99.4134 9.0413 99.4134 12.3546C99.4134 13.5704 99.6566 14.7249 100.088 15.7673C101.3 18.6874 104.017 20.7236 107.175 20.7236C108.391 20.7236 109.539 20.4212 110.566 19.8841C113.153 18.5267 114.936 15.6658 114.936 12.3525C114.936 11.1367 114.692 9.98223 114.261 8.93981L114.259 8.9377Z" fill="#2F80ED"/>
<path id="Vector_6" d="M111.567 10.2359C110.815 8.43444 109.131 7.17847 107.175 7.17847C106.422 7.17847 105.711 7.36454 105.077 7.69439C103.469 8.53171 102.359 10.3015 102.359 12.3525C102.359 13.1074 102.51 13.822 102.78 14.469L105.437 13.1877C105.331 12.9319 105.27 12.6506 105.27 12.3525C105.27 11.5427 105.709 10.8449 106.345 10.5151C106.596 10.384 106.876 10.31 107.173 10.31C107.945 10.31 108.609 10.8068 108.908 11.5173C109.014 11.7731 109.076 12.0544 109.076 12.3525C109.076 13.1623 108.636 13.8601 108 14.1899L109.27 17.0085C110.878 16.1712 111.988 14.4014 111.988 12.3504C111.988 11.5955 111.837 10.8808 111.567 10.2338V10.2359Z" fill="white"/>
<path id="Vector_7" d="M108.908 11.5152C108.609 10.8026 107.945 10.3079 107.172 10.3079C106.876 10.3079 106.596 10.384 106.345 10.513C105.709 10.8449 105.269 11.5406 105.269 12.3504C105.269 12.6485 105.331 12.9319 105.437 13.1856C105.735 13.8982 106.4 14.393 107.172 14.393C107.469 14.393 107.749 14.3168 108 14.1879C108.636 13.8559 109.075 13.1602 109.075 12.3504C109.075 12.0523 109.014 11.7689 108.908 11.5152Z" fill="#00213D"/>
</g>
</g>
<g id="Group_4">
<g id="Group_5">
<path id="Vector_8" d="M78.9301 5.62472C78.0021 4.56539 76.604 4.02832 74.7685 4.02832C73.0638 4.02832 71.4081 4.72819 69.8506 6.11104C69.0718 4.72819 67.7084 4.02832 65.7911 4.02832C63.8738 4.02832 62.3326 4.71128 60.9795 6.06029L60.9366 4.02832H57.0958V20.5209H61.4169V9.22349C62.3694 8.2297 63.3873 7.72647 64.4461 7.72647C65.1064 7.72647 65.5826 7.92312 65.9056 8.32909C66.2326 8.7414 66.3982 9.38419 66.3982 10.2384V20.5209H70.7213V9.22772C71.7311 8.23182 72.7899 7.72647 73.8691 7.72647C74.5825 7.72647 75.1201 7.92734 75.4675 8.32697C75.8191 8.73083 75.999 9.35882 75.999 10.194V20.5209H80.3201V10.3463C80.3201 8.26565 79.852 6.67771 78.9301 5.62472Z" fill="#00213D"/>
<path id="Vector_9" d="M52.5192 5.39425C51.3357 4.48715 49.5513 4.02832 47.215 4.02832C45.5143 4.02832 43.6011 4.28839 41.5264 4.80009L41.369 4.83815V8.48767L41.6205 8.42635C43.6624 7.92311 45.545 7.66727 47.2129 7.66727C48.1654 7.66727 48.8829 7.83642 49.3448 8.16839C49.7904 8.48978 50.0071 8.96131 50.0071 9.61255V10.5683C49.026 10.3928 48.0326 10.304 47.0514 10.304C44.7744 10.304 43.037 10.7184 41.8862 11.5388C40.7109 12.3761 40.114 13.6427 40.114 15.3067C40.114 16.9708 40.6168 18.3494 41.6062 19.2206C42.5873 20.0832 44.0672 20.5231 46.0029 20.5231C47.5502 20.5231 48.9933 20.0917 50.2974 19.2396L50.4425 20.5231H54.3282V9.53643C54.3282 7.70956 53.7191 6.31614 52.5172 5.39425H52.5192ZM50.0071 16.0383C48.9585 16.8038 47.8098 17.1907 46.5936 17.1907C45.8618 17.1907 45.3099 17.0279 44.9563 16.7065C44.6068 16.3893 44.4351 15.9157 44.4351 15.2581C44.4351 14.6639 44.6374 14.2326 45.0503 13.9408C45.4837 13.6342 46.1562 13.4799 47.0514 13.4799C48.0939 13.4799 49.0873 13.5708 50.0071 13.7484V16.0362V16.0383Z" fill="#00213D"/>
<path id="Vector_10" d="M30.9793 4.02832C28.506 4.02832 26.6194 4.71128 25.3725 6.05607C24.1277 7.39873 23.4961 9.42859 23.4961 12.0907C23.4961 14.7527 24.2279 17.0025 25.6689 18.4086C27.1059 19.8105 29.2807 20.5209 32.1321 20.5209C34.0964 20.5209 35.7909 20.3645 37.1666 20.0579L37.3281 20.0219V16.383L37.0848 16.4295C35.5395 16.7319 33.9718 16.8841 32.4265 16.8841C30.8812 16.8841 29.6957 16.6113 28.9312 16.0722C28.2321 15.5795 27.8683 14.8712 27.8213 13.9091H38.0823L38.1068 13.7272C38.1968 13.0591 38.2417 12.3782 38.2417 11.708C38.2417 9.17274 37.6285 7.23803 36.4185 5.9588C35.2084 4.67745 33.377 4.02832 30.9793 4.02832ZM34.0229 10.6698H27.8376C27.946 9.68656 28.2464 8.93593 28.7309 8.43692C29.2501 7.90408 30.0064 7.63344 30.9793 7.63344C32.0013 7.63344 32.7719 7.89351 33.2707 8.4052C33.7551 8.9021 34.0086 9.6633 34.0229 10.6677V10.6698Z" fill="#00213D"/>
</g>
<g id="Group_6">
<path id="Vector_11" d="M13.0552 20.0262L10.2794 16.0701H9.59466C8.62988 16.0701 7.72642 15.7931 6.94765 15.3089C5.35944 14.3235 4.29041 12.4819 4.29041 10.3717C4.29041 7.84914 5.8173 5.71144 7.93083 4.96082C8.23334 4.85298 8.55017 4.77474 8.87517 4.72611L9.40253 3.68369L10.5043 1.49948L11.1788 0.163155L11.2503 0.0214844H9.40253V0.0278274C4.1923 0.139893 0 4.72611 0 10.3717C0 16.0172 4.1923 20.6055 9.40253 20.7155V20.7218H13.5458L13.0572 20.0262H13.0552Z" fill="#2F80ED"/>
<path id="Vector_12" d="M21.5256 9.47948C21.6012 9.01853 21.6442 8.5449 21.6442 8.05858C21.6442 8.05435 21.6442 8.05012 21.6442 8.048C21.6442 6.96964 21.4438 5.94202 21.0841 5.00321C20.5404 3.58019 19.6308 2.36439 18.48 1.48901C17.832 0.99635 17.1105 0.613639 16.3338 0.362021C15.8759 0.21401 15.3997 0.112514 14.907 0.0617676L14.2836 1.2966L14.114 1.63279L12.5769 4.67758H14.2182C15.0624 4.68604 15.8269 5.0455 16.389 5.62908C16.5975 5.84476 16.7773 6.09214 16.9245 6.36279C17.1943 6.85969 17.3497 7.4327 17.3497 8.048C17.3497 8.4138 17.2945 8.7648 17.1923 9.09253C16.853 10.2005 15.9924 11.0547 14.9193 11.3254C14.6863 11.3846 14.4431 11.4184 14.1937 11.4184H10.6943L12.7629 14.3659L13.5294 15.4591L13.9586 16.0702L13.9709 16.0871L15.3751 18.0895L17.2229 20.7241H21.5154L18.2511 16.0723L17.8218 15.4612L17.6297 15.1885C17.6828 15.1589 17.7339 15.1293 17.785 15.0997C19.7166 13.9515 21.1229 11.9047 21.5236 9.47948H21.5256Z" fill="#00213D"/>
</g>
</g>
</g>
</g>
</svg>
