<svg width="20" height="15" viewBox="0 0 20 15" fill="none" xmlns="http://www.w3.org/2000/svg">
<g id="Group">
<path id="Vector (Stroke)" fill-rule="evenodd" clip-rule="evenodd" d="M2.03786 5.98866C1.60204 6.64083 1.42857 7.16889 1.42857 7.50028C1.42857 7.83167 1.60204 8.35973 2.03786 9.01189C2.46162 9.64602 3.08878 10.3296 3.87913 10.9596C5.46369 12.2225 7.63277 13.2146 10 13.2146C12.3672 13.2146 14.5363 12.2225 16.1209 10.9596C16.9112 10.3296 17.5384 9.64602 17.9621 9.01189C18.398 8.35973 18.5714 7.83167 18.5714 7.50028C18.5714 7.16889 18.398 6.64083 17.9621 5.98866C17.5384 5.35454 16.9112 4.67092 16.1209 4.041C14.5363 2.77806 12.3672 1.78599 10 1.78599C7.63277 1.78599 5.46369 2.77806 3.87913 4.041C3.08878 4.67092 2.46162 5.35454 2.03786 5.98866ZM2.98873 2.92385C4.76488 1.50821 7.23866 0.357422 10 0.357422C12.7613 0.357422 15.2351 1.50821 17.0113 2.92385C17.9013 3.63321 18.6339 4.42281 19.1499 5.19493C19.6538 5.94901 20 6.76024 20 7.50028C20 8.24031 19.6538 9.05155 19.1499 9.80563C18.6339 10.5778 17.9013 11.3673 17.0113 12.0767C15.2351 13.4923 12.7613 14.6431 10 14.6431C7.23866 14.6431 4.76488 13.4923 2.98873 12.0767C2.09872 11.3673 1.36606 10.5778 0.850087 9.80563C0.346169 9.05155 0 8.24031 0 7.50028C0 6.76024 0.346169 5.94901 0.850087 5.19493C1.36606 4.42281 2.09872 3.63321 2.98873 2.92385Z" fill="#00213D"/>
<path id="Vector (Stroke)_2" fill-rule="evenodd" clip-rule="evenodd" d="M10.001 4.64268C9.24325 4.64268 8.51653 4.9437 7.98071 5.47952C7.44489 6.01534 7.14387 6.74206 7.14387 7.49983C7.14387 8.25759 7.44489 8.98431 7.98071 9.52013C8.51653 10.0559 9.24325 10.357 10.001 10.357C10.7588 10.357 11.4855 10.0559 12.0213 9.52013C12.5571 8.98431 12.8582 8.25759 12.8582 7.49983C12.8582 6.74206 12.5571 6.01534 12.0213 5.47952C11.4855 4.9437 10.7588 4.64268 10.001 4.64268ZM6.97056 4.46937C7.77429 3.66564 8.86437 3.21411 10.001 3.21411C11.1377 3.21411 12.2277 3.66564 13.0315 4.46937C13.8352 5.2731 14.2867 6.36318 14.2867 7.49983C14.2867 8.63647 13.8352 9.72656 13.0315 10.5303C12.2277 11.334 11.1377 11.7855 10.001 11.7855C8.86437 11.7855 7.77429 11.334 6.97056 10.5303C6.16683 9.72656 5.7153 8.63647 5.7153 7.49983C5.7153 6.36318 6.16683 5.2731 6.97056 4.46937Z" fill="#00213D"/>
</g>
</svg>
