<svg width="24" height="24" viewBox="0 0 24 24" fill="none" xmlns="http://www.w3.org/2000/svg">
<path fill-rule="evenodd" clip-rule="evenodd" d="M4.03786 10.4884C3.60204 11.1406 3.42857 11.6686 3.42857 12C3.42857 12.3314 3.60204 12.8595 4.03786 13.5117C4.46162 14.1458 5.08878 14.8294 5.87913 15.4593C7.46369 16.7223 9.63277 17.7143 12 17.7143C14.3672 17.7143 16.5363 16.7223 18.1209 15.4593C18.9112 14.8294 19.5384 14.1458 19.9621 13.5117C20.398 12.8595 20.5714 12.3314 20.5714 12C20.5714 11.6686 20.398 11.1406 19.9621 10.4884C19.5384 9.85429 18.9112 9.17068 18.1209 8.54075C16.5363 7.27782 14.3672 6.28575 12 6.28575C9.63277 6.28575 7.46369 7.27782 5.87913 8.54075C5.08878 9.17068 4.46162 9.85429 4.03786 10.4884ZM4.98873 7.4236C6.76488 6.00797 9.23866 4.85718 12 4.85718C14.7613 4.85718 17.2351 6.00797 19.0113 7.4236C19.9013 8.13296 20.6339 8.92256 21.1499 9.69469C21.6538 10.4488 22 11.26 22 12C22 12.7401 21.6538 13.5513 21.1499 14.3054C20.6339 15.0775 19.9013 15.8671 19.0113 16.5765C17.2351 17.9921 14.7613 19.1429 12 19.1429C9.23866 19.1429 6.76488 17.9921 4.98873 16.5765C4.09872 15.8671 3.36606 15.0775 2.85009 14.3054C2.34617 13.5513 2 12.7401 2 12C2 11.26 2.34617 10.4488 2.85009 9.69469C3.36606 8.92256 4.09872 8.13296 4.98873 7.4236Z" fill="#00213D"/>
<path fill-rule="evenodd" clip-rule="evenodd" d="M12.0006 9.14293C11.2428 9.14293 10.5161 9.44395 9.98025 9.97976C9.44443 10.5156 9.14342 11.2423 9.14342 12.0001C9.14342 12.7578 9.44443 13.4846 9.98025 14.0204C10.5161 14.5562 11.2428 14.8572 12.0006 14.8572C12.7583 14.8572 13.485 14.5562 14.0209 14.0204C14.5567 13.4846 14.8577 12.7578 14.8577 12.0001C14.8577 11.2423 14.5567 10.5156 14.0209 9.97976C13.485 9.44395 12.7583 9.14293 12.0006 9.14293ZM8.9701 8.96961C9.77383 8.16588 10.8639 7.71436 12.0006 7.71436C13.1372 7.71436 14.2273 8.16588 15.031 8.96961C15.8347 9.77334 16.2863 10.8634 16.2863 12.0001C16.2863 13.1367 15.8347 14.2268 15.031 15.0305C14.2273 15.8343 13.1372 16.2858 12.0006 16.2858C10.8639 16.2858 9.77383 15.8343 8.9701 15.0305C8.16637 14.2268 7.71484 13.1367 7.71484 12.0001C7.71484 10.8634 8.16637 9.77334 8.9701 8.96961Z" fill="#00213D"/>
<path fill-rule="evenodd" clip-rule="evenodd" d="M5.51849 5.48176C5.76878 5.23147 6.1847 5.24159 6.44748 5.50436L18.5594 17.6162C18.8221 17.879 18.8323 18.2949 18.582 18.5452C18.3317 18.7955 17.9157 18.7854 17.653 18.5226L5.54109 6.41075C5.27831 6.14798 5.26819 5.73205 5.51849 5.48176Z" fill="#00213D"/>
<path fill-rule="evenodd" clip-rule="evenodd" d="M4.9593 4.92254C5.54376 4.33808 6.46102 4.3995 7.00667 4.94515L19.1185 17.057C19.6642 17.6027 19.7256 18.5199 19.1412 19.1044C18.5567 19.6889 17.6394 19.6274 17.0938 19.0818L4.9819 6.96991C4.43626 6.42426 4.37483 5.507 4.9593 4.92254ZM6.44748 5.50433C6.1847 5.24156 5.76878 5.23144 5.51849 5.48173C5.26819 5.73202 5.27831 6.14795 5.54109 6.41072L17.653 18.5226C17.9157 18.7854 18.3317 18.7955 18.582 18.5452C18.8323 18.2949 18.8221 17.879 18.5594 17.6162L6.44748 5.50433Z" fill="white"/>
</svg>
